<?xml version="1.0" standalone="no"?>
<!DOCTYPE svg PUBLIC "-//W3C//DTD SVG 20010904//EN"
 "http://www.w3.org/TR/2001/REC-SVG-20010904/DTD/svg10.dtd">
<svg version="1.0" xmlns="http://www.w3.org/2000/svg"
 width="350.000000pt" height="350.000000pt" viewBox="0 0 350.000000 350.000000"
 preserveAspectRatio="xMidYMid meet">
<metadata>
Created by potrace 1.11, written by Peter Selinger 2001-2013
</metadata>
<g transform="translate(0.000000,350.000000) scale(0.100000,-0.100000)"
fill="#000000" stroke="none">
<path d="M1602 3489 c-417 -35 -803 -218 -1098 -521 -150 -153 -236 -276 -328
-468 -228 -475 -228 -1025 0 -1500 92 -192 178 -315 328 -468 153 -157 298
-261 496 -356 476 -229 1024 -229 1500 0 198 95 343 199 496 356 150 153 236
276 328 468 132 275 189 575 166 875 -32 423 -199 791 -494 1093 -366 375
-874 565 -1394 521z m-170 -762 c71 -43 98 -101 98 -207 0 -128 -67 -210 -179
-218 -86 -6 -146 28 -186 107 -13 26 -16 54 -13 131 3 92 5 101 33 136 43 52
89 74 155 74 39 0 65 -6 92 -23z m893 -62 c113 -24 209 -77 295 -164 127 -128
180 -256 180 -442 0 -308 -124 -604 -350 -830 -138 -138 -299 -240 -469 -295
-30 -10 -89 -42 -130 -72 -177 -127 -440 -223 -559 -206 -56 9 -57 9 -63 48
-16 98 57 331 151 481 27 44 55 90 62 103 11 21 2 32 -140 176 l-152 152 0
209 0 209 -168 -167 c-157 -155 -171 -167 -205 -167 -49 0 -77 28 -77 77 0 34
12 49 193 231 105 106 204 200 219 208 22 11 104 14 456 14 419 0 430 0 456
-21 20 -16 26 -29 26 -59 0 -30 -6 -43 -26 -59 -25 -20 -39 -21 -240 -21 -264
0 -254 5 -254 -130 l0 -90 186 0 c171 0 188 -2 214 -20 16 -11 32 -29 35 -39
5 -17 15 -14 100 36 152 88 200 166 200 323 0 87 -3 101 -32 160 -17 36 -48
81 -67 99 l-36 35 -33 -32 c-79 -76 -197 -33 -197 71 0 147 194 230 425 182z"/>
<path d="M1534 1551 l69 -70 74 66 c40 37 73 68 73 70 0 2 -64 3 -142 3 l-142
0 68 -69z"/>
</g>
</svg>
