<?xml version="1.0" standalone="no"?>
<!DOCTYPE svg PUBLIC "-//W3C//DTD SVG 20010904//EN"
 "http://www.w3.org/TR/2001/REC-SVG-20010904/DTD/svg10.dtd">
<svg version="1.0" xmlns="http://www.w3.org/2000/svg"
 width="1000.000000pt" height="1000.000000pt" viewBox="0 0 1000.000000 1000.000000"
 preserveAspectRatio="xMidYMid meet">
<metadata>
Created by potrace 1.11, written by Peter Selinger 2001-2013
</metadata>
<g transform="translate(0.000000,1000.000000) scale(0.100000,-0.100000)"
fill="#000000" stroke="none">
<path d="M3080 9975 c-255 -38 -476 -131 -670 -284 -207 -163 -370 -406 -458
-682 -36 -112 -60 -332 -69 -639 -8 -273 23 -454 115 -668 l39 -89 -61 -33
c-236 -128 -391 -260 -660 -565 -77 -88 -271 -288 -431 -445 -620 -609 -659
-650 -723 -747 -181 -278 -210 -611 -78 -897 47 -103 98 -178 181 -265 125
-131 276 -219 451 -263 124 -30 304 -30 427 0 218 54 349 136 583 365 l164
160 0 -91 c0 -50 5 -103 11 -119 6 -15 26 -86 45 -156 82 -308 99 -332 617
-854 l418 -421 -91 -154 c-122 -205 -293 -548 -368 -738 -151 -383 -231 -682
-309 -1155 -23 -140 -28 -199 -27 -335 1 -145 4 -177 27 -265 39 -145 102
-267 238 -457 l120 -168 334 0 c318 0 338 1 437 24 56 14 200 45 318 70 404
85 681 155 855 216 231 82 528 220 755 350 151 87 477 302 655 431 120 87 139
97 255 135 393 131 989 434 1400 713 306 207 554 413 826 685 402 403 700 814
948 1305 335 664 536 1372 628 2211 19 171 16 614 -6 775 -82 626 -300 1135
-688 1608 -187 228 -562 554 -804 697 -362 216 -755 359 -1159 422 -121 19
-180 22 -430 22 -250 0 -310 -3 -435 -22 -486 -75 -802 -215 -1055 -466 -154
-153 -265 -332 -338 -542 -96 -276 -87 -545 28 -826 7 -17 -9 -18 -239 -18
-135 0 -246 3 -246 6 0 4 9 37 20 73 52 178 66 437 41 806 -20 299 -124 564
-315 801 -298 371 -793 561 -1276 489z m300 -616 c170 -21 321 -93 438 -208
105 -103 170 -218 208 -370 23 -89 25 -116 26 -366 2 -250 0 -276 -20 -350
-38 -139 -95 -238 -192 -335 -99 -99 -178 -148 -310 -192 -91 -31 -102 -33
-255 -33 -142 0 -168 3 -230 24 -211 71 -370 208 -460 396 -54 111 -67 174
-72 336 -6 167 20 527 42 588 103 293 360 491 665 514 25 2 52 4 60 5 9 1 54
-3 100 -9z m3840 -325 c415 -60 794 -218 1136 -475 141 -105 370 -324 470
-449 283 -352 452 -736 520 -1185 26 -169 26 -622 1 -815 -74 -562 -161 -931
-323 -1367 -385 -1037 -1060 -1841 -2041 -2434 -336 -203 -864 -449 -1082
-504 -57 -14 -105 -25 -106 -23 -2 2 47 46 108 98 164 141 573 552 738 741
402 460 699 877 998 1397 120 209 671 1249 671 1267 0 3 -109 5 -242 5 -213 0
-539 22 -558 37 -10 9 -20 196 -26 481 -4 215 -9 292 -18 289 -6 -3 -148 -68
-316 -145 -168 -77 -335 -153 -372 -170 l-67 -30 86 106 c193 238 303 456 359
712 29 130 26 457 -4 598 -80 367 -250 661 -505 874 l-58 48 -95 -87 c-170
-157 -263 -198 -432 -191 -87 3 -105 7 -175 41 -183 86 -290 282 -260 475 40
258 229 486 493 598 268 113 744 159 1100 108z m-3650 -1863 c124 -3 698 -3
1275 2 715 5 1072 4 1120 -3 134 -20 226 -88 261 -193 23 -68 16 -196 -14
-253 -33 -65 -104 -121 -181 -144 -62 -17 -117 -19 -866 -23 -844 -6 -865 -7
-957 -53 -58 -30 -94 -76 -121 -156 -18 -57 -21 -93 -25 -395 l-4 -332 119 -4
c65 -2 402 -4 748 -4 627 0 630 0 694 -22 125 -43 203 -112 273 -239 l35 -63
-5 -691 c-5 -652 -4 -695 14 -771 18 -75 22 -82 64 -113 25 -19 61 -41 80 -50
19 -10 131 -78 249 -153 l213 -135 -6 -101 c-4 -55 -9 -112 -12 -127 l-6 -28
-469 0 -470 0 -251 45 c-139 25 -253 47 -254 48 -1 1 -16 45 -33 97 -43 126
-51 256 -50 865 0 259 0 480 -1 493 l0 22 -578 0 -577 0 -20 -37 c-10 -21 -20
-41 -22 -44 -1 -4 61 -64 140 -135 78 -71 208 -188 289 -262 119 -108 154
-133 178 -134 50 -2 150 -123 215 -261 61 -129 70 -204 58 -492 -12 -283 -2
-667 18 -764 l14 -65 72 -45 c39 -25 163 -102 274 -171 112 -69 213 -134 224
-145 20 -19 21 -25 12 -142 l-9 -123 -472 0 -471 0 -249 45 c-138 25 -253 48
-257 52 -3 5 -21 51 -39 103 -43 123 -48 226 -49 867 l-1 482 -553 551 c-386
383 -562 564 -580 598 -15 27 -42 108 -62 181 l-35 132 0 766 0 765 -42 -33
c-24 -18 -333 -322 -688 -674 -716 -713 -696 -696 -831 -703 -130 -8 -230 52
-290 173 -29 60 -31 71 -27 142 3 53 12 92 27 123 16 32 167 189 521 540 273
272 556 563 628 646 144 167 208 229 327 317 164 122 376 203 615 237 61 8
278 6 820 -9z"/>
</g>
</svg>
